<!-- CC 4.0-licensed Coolicon from https://coolicons.cool/ -->
<svg width="24" height="24" fill="none" xmlns="http://www.w3.org/2000/svg"><path fill-rule="evenodd" clip-rule="evenodd" d="M4.412 3.002l16.97 16.969.001-.002.002.002-1.414 1.414-3.357-3.357c-1.257.586-2.78.972-4.614.972-7.592 0-9.874-6.617-9.896-6.684L2 12l.105-.316c.014-.042.929-2.699 3.515-4.65L3 4.415l1.412-1.412zM15.087 16.5l-1.797-1.797c-.392.19-.83.296-1.29.296a3.02 3.02 0 01-3-3c0-.46.107-.898.296-1.29l-2.26-2.26C5.27 9.667 4.416 11.31 4.116 12c.5 1.154 2.562 5 7.884 5 1.184 0 2.207-.19 3.087-.5z" fill="#2E3A59"/><path d="M9.5 5.261C10.261 5.095 11.093 5 12 5c7.592 0 9.874 6.617 9.896 6.684L22 12l-.105.316c-.01.033-.57 1.657-2.044 3.296L18.46 14.22A8.593 8.593 0 0019.883 12c-.499-1.154-2.56-5-7.883-5-.252 0-.498.009-.736.025L9.5 5.261z" fill="#2E3A59"/></svg>