<svg version="1.0" xmlns="http://www.w3.org/2000/svg" width="1365.333" height="1365.333" viewBox="0 0 1024 1024"><path d="M0 512v512h1024V0H0v512zm737.7-106.2c9.4 3 127.2 71.6 129.9 75.7.9 1.5 1.4 7.9 1.6 24.8.3 22.7.3 22.8-2 24.5-2.1 1.6-38.4 14.2-40.8 14.2-.7 0-8.3-4.3-17-9.6-21.3-12.9-63.6-37.1-70.4-40.3-4.6-2.1-6.9-2.6-14-2.5-5.8 0-9.8.6-12.5 1.7-8.1 3.5-55.9 31.3-59.9 34.9-5.8 5-10.3 13.8-11.7 22.8-.7 4.7-1 17.6-.7 36.4.4 27.6.5 29.4 2.8 35.1 1.7 4.4 4 7.6 8.4 12 6.5 6.4 20.7 14.8 74.1 43.9 13.8 7.5 25.9 14.3 27 15.2 1.9 1.4 2 2.5 1.7 23.2-.2 11.9-.7 22.3-1.2 23.2-1.4 2.6-35.9 17.4-40.5 17.4-3.2-.1-8.8-2.7-29-13.8-36-19.9-97.8-55.5-103.3-59.6-6.2-4.7-11.8-13-14.3-21-1.9-6.3-2-9.1-1.7-83.1l.3-76.5 3.7-7.5c3.8-7.5 7.3-11.9 13.1-16.3 6.7-5.1 124.9-72.7 130.5-74.6 7.4-2.5 18.1-2.6 25.9-.2zm19 149.2c41.8 22.9 99.1 56.2 103.9 60.4 5.7 4.9 9.9 11.1 12.7 18.4 2.1 5.6 2.2 6.7 2.5 77.1.2 48-.1 73.8-.8 78.5-1.9 12.5-8.2 23.2-17.4 29.5-6.1 4.2-120.2 70-126.6 73-4.9 2.3-6.7 2.6-16.5 2.6-13.7 0-11 1.2-59.1-26.5-50.4-29-79.7-46.6-82.5-49.6-2.4-2.5-2.4-3-2.7-25-.3-22.4-.3-22.4 2.1-24.7 3-3.1 38.7-15.2 41.8-14.2 1.2.4 8 4.3 15.3 8.8 7.2 4.4 26.3 15.6 42.3 24.8 33.9 19.3 38.1 20.8 51.3 17.8 6.3-1.4 60.1-32.2 65.2-37.4 2.3-2.2 5.5-6.9 7.2-10.5l3.1-6.5.3-33.3c.3-28.3.1-34.2-1.3-39-2-6.8-7.2-15.1-11.7-18.5-4.6-3.5-29.6-17.8-66.3-37.9-17-9.4-31.8-17.7-32.7-18.6-1.6-1.3-1.8-3.8-1.8-22.7 0-18.8.2-21.5 1.8-23.4.9-1.1 8.9-5.3 17.7-9.2 19-8.5 20.2-8.9 23.7-8.4 1.5.2 14.3 6.8 28.5 14.5z"/></svg>