<!-- CC 4.0-licensed Coolicon from https://coolicons.cool/ -->
<svg width="24" height="24" fill="none" xmlns="http://www.w3.org/2000/svg"><path d="M12 9a3.02 3.02 0 00-3 3c0 1.642 1.358 3 3 3 1.641 0 3-1.358 3-3 0-1.641-1.359-3-3-3z" fill="#2E3A59"/><path d="M12 5c-7.592 0-9.874 6.617-9.895 6.684L2 12l.104.316C2.126 12.383 4.408 19 12 19c7.592 0 9.874-6.617 9.895-6.684L22 12l-.104-.316C21.874 11.617 19.592 5 12 5zm0 12c-5.322 0-7.384-3.846-7.883-5 .5-1.158 2.564-5 7.883-5 5.322 0 7.384 3.846 7.883 5-.5 1.158-2.564 5-7.883 5z" fill="#2E3A59"/></svg>